<?xml version="1.0" standalone="no"?><!DOCTYPE svg PUBLIC "-//W3C//DTD SVG 1.1//EN" "http://www.w3.org/Graphics/SVG/1.1/DTD/svg11.dtd"><svg t="1767751742519" class="icon" viewBox="0 0 1024 1024" version="1.1" xmlns="http://www.w3.org/2000/svg" p-id="1463" xmlns:xlink="http://www.w3.org/1999/xlink" width="200" height="200"><path d="M925.013333 877.226667h-819.2v-40.96c0-95.573333 61.44-177.493333 150.186667-208.213334l98.986667-34.133333 6.826666 6.826667c44.373333 47.786667 98.986667 71.68 153.6 71.68s112.64-27.306667 153.6-71.68l6.826667-6.826667 98.986667 34.133333c88.746667 30.72 150.186667 116.053333 150.186666 208.213334v40.96z m-785.066666-34.133334h750.933333v-6.826666c0-78.506667-51.2-150.186667-126.293333-177.493334l-78.506667-27.306666c-47.786667 47.786667-109.226667 75.093333-170.666667 75.093333s-122.88-27.306667-170.666666-75.093333l-78.506667 27.306666c-75.093333 27.306667-126.293333 98.986667-126.293333 177.493334v6.826666z" fill="#2D3545" p-id="1464"></path><path d="M515.413333 638.293333c-85.333333 0-160.426667-68.266667-191.146666-170.666666-27.306667 0-47.786667-37.546667-47.786667-85.333334 0-37.546667 13.653333-68.266667 34.133333-81.92v-3.413333c0-112.64 92.16-204.8 204.8-204.8s204.8 92.16 204.8 204.8v3.413333c20.48 10.24 34.133333 40.96 34.133334 81.92 0 47.786667-20.48 81.92-47.786667 85.333334-30.72 102.4-105.813333 170.666667-191.146667 170.666666z m-167.253333-215.04l6.826667 20.48c23.893333 95.573333 88.746667 160.426667 160.426666 160.426667s136.533333-64.853333 160.426667-160.426667l6.826667-23.893333 20.48 13.653333c6.826667 0 17.066667-17.066667 17.066666-51.2 0-30.72-10.24-47.786667-17.066666-51.2l-20.48 3.413334 3.413333-23.893334v-10.24c0-95.573333-75.093333-170.666667-170.666667-170.666666s-170.666667 75.093333-170.666666 170.666666v10.24l3.413333 23.893334-20.48-3.413334c-3.413333 3.413333-17.066667 20.48-17.066667 51.2 0 34.133333 13.653333 51.2 17.066667 51.2l20.48-10.24z" fill="#2D3545" p-id="1465"></path><path d="M481.28 419.84c-3.413333-13.653333 3.413333-44.373333 40.96-68.266667 20.48-13.653333 27.306667-23.893333 27.306667-54.613333 0-30.72-23.893333-34.133333-34.133334-34.133333s-34.133333 3.413333-34.133333 34.133333h-34.133333c0-40.96 27.306667-68.266667 68.266666-68.266667s68.266667 27.306667 68.266667 68.266667-13.653333 64.853333-40.96 81.92c-27.306667 17.066667-27.306667 34.133333-27.306667 34.133333l-34.133333 6.826667zM498.346667 518.826667c-20.48 0-34.133333-13.653333-34.133334-34.133334s13.653333-34.133333 34.133334-34.133333 34.133333 13.653333 34.133333 34.133333-13.653333 34.133333-34.133333 34.133334z m0-34.133334h17.066666-17.066666z" fill="#2D3545" p-id="1466"></path></svg>