<?xml version="1.0" standalone="no"?><!DOCTYPE svg PUBLIC "-//W3C//DTD SVG 1.1//EN" "http://www.w3.org/Graphics/SVG/1.1/DTD/svg11.dtd"><svg t="1767750580827" class="icon" viewBox="0 0 1024 1024" version="1.1" xmlns="http://www.w3.org/2000/svg" p-id="8423" xmlns:xlink="http://www.w3.org/1999/xlink" width="200" height="200"><path d="M315.374 847.091s-10.899-148.27 128.649-162.108h62.567V656.16s44.012 18.904 88.578 2.109l1.406 26.714h73.112s125.198 4.917 119.51 163.514l-473.822-1.406z" fill="#FFFFFF" p-id="8424"></path><path d="M790.42 853.001H312.542l2.269-38.769c4.431-75.697 64.072-133.466 132.324-133.466h51.942v7.733h-47.799c-65.78 0-123.262 55.606-127.533 128.469l-1.576 26.895h467.012l-0.873-26.895c-4.271-72.863-61.753-128.469-127.533-128.469h-63.98v-7.733h67.707c68.251 0 127.893 57.769 132.324 133.466l2.269 38.769h-8.675z" fill="#3B434F" p-id="8425"></path><path d="M548.288 767.938c-37.661 0-68.191-30.53-68.191-68.191 0-6.59 0.953-12.953 2.697-18.981h19.799v7.733h-14.414a61.12 61.12 0 0 0-1.052 11.248c0 33.778 27.383 61.161 61.161 61.161 33.778 0 61.161-27.383 61.161-61.161 0-3.845-0.37-7.602-1.052-11.248h-14.414v-7.733h19.799a68.178 68.178 0 0 1 2.697 18.981c0 37.661-30.53 68.191-68.191 68.191z" fill="#3B434F" p-id="8426"></path><path d="M508.217 652.908v43.358c0 22.5 18.255 40.739 40.774 40.739s40.774-18.24 40.774-40.739v-42.464c2.366-0.72 4.71-1.503 7.03-2.348v45.107c0 26.607-21.56 48.177-48.156 48.177s-48.156-21.57-48.156-48.177V650.12a138.246 138.246 0 0 0 7.734 2.788z" fill="#3B434F" p-id="8427"></path><path d="M550.75 211.863c87.454 0 156.482 81.726 154.238 179.922l-2.386 104.365c-2.114 92.51-70.077 165.635-151.852 165.635S401.013 588.66 398.898 496.15l-2.386-104.365c-2.244-98.196 66.784-179.922 154.238-179.922z" fill="#FFFFFF" p-id="8428"></path><path d="M712.015 388.549l-2.5 108.605c-2.216 96.268-73.43 172.364-159.116 172.364s-156.9-76.095-159.116-172.364l-2.5-108.605c-2.352-102.185 69.978-187.231 161.616-187.231s163.968 85.046 161.616 187.231zM550.048 212.566c-86.259 0-154.343 81.088-152.129 178.516l2.353 103.549c2.086 91.787 69.119 164.341 149.776 164.341s147.691-72.553 149.776-164.341l2.353-103.549c2.214-97.428-65.87-178.516-152.129-178.516z" fill="#3B434F" p-id="8429"></path><path d="M707.628 406.595l-7.03 115.292S669.374 654.97 548.75 670.728v0.195c-0.237-0.029-0.467-0.068-0.703-0.098-0.236 0.03-0.466 0.069-0.703 0.098v-0.195C426.718 654.97 395.495 521.887 395.495 521.887l-7.03-115.292c31.302 138.942 57.646 147.63 57.646 147.63-5.331-42.133 37.962-37.962 37.962-37.962 26.386 4.457 47.391 6.611 63.973 7.416 16.582-0.805 37.587-2.959 63.973-7.416 0 0 43.293-4.17 37.962 37.962 0 0 26.345-8.688 57.647-147.63z m-78.171 161.921c-2.046-24.784-16.991-22.682-16.991-22.682-26.568 7.818-47.423 12.16-63.716 14.368v-0.162c-16.179-2.189-36.888-6.496-63.27-14.25 0 0-14.84-2.084-16.872 22.496 0 0-5.959 24.627 14.06 35.15l25.308 26.714s17.295 5.481 16.872-15.466c0 0-1.76-15.623 8.436-18.278h15.466v0.463h15.575c10.268 2.677 8.496 18.429 8.496 18.429-0.426 21.12 16.991 15.594 16.991 15.594l25.487-26.935c20.159-10.611 14.158-35.441 14.158-35.441z" fill="#3B434F" p-id="8430"></path><path d="M533.525 606.247h33.744a2.812 2.812 0 0 1 0 5.624h-33.744a2.812 2.812 0 0 1 0-5.624z m-29.529-33.645l3.916-5.481c12.588 7.201 27.544 11.375 43.589 11.375 16.224 0 31.333-4.269 44.008-11.618l4.1 5.661c-13.789 7.982-30.219 12.619-47.86 12.619-17.595-0.001-33.987-4.612-47.753-12.556z" fill="#3B434F" p-id="8431"></path><path d="M388.608 404.387c-0.019 0.001-1.726-1.362-4.949-2.377a23.233 23.233 0 0 0-5.894-1.025 23.769 23.769 0 0 0-3.594 0.109 22.504 22.504 0 0 0-3.833 0.746c-5.192 1.492-10.489 5.12-13.599 12.607-1.561 3.744-2.592 8.454-2.864 14.346a71.964 71.964 0 0 0-0.059 4.645c0.03 1.624 0.111 3.326 0.245 5.109 0.269 3.565 0.756 7.453 1.48 11.689-0.016-0.004-0.676 12.802 3.903 27.518 4.304 14.387 14.64 32.061 33.722 37.111-2.195-36.545-2.263-73.774-4.558-110.478z" fill="#FFFFFF" p-id="8432"></path><path d="M390.784 405.86s-33.244-10.301-32.074 23.876c0 0 4.949 49.557 7.099 54.124 0 0 13.056 28.854 34.603 30.133 21.059 1.25 0 0 0 0l0.262 9.3s-37.871-4.856-45.185-48.498l-5.773-39.647s-4.483-52.469 38.999-39.128c42.36 12.997 0 0 0 0l2.069 9.84" fill="#3B434F" p-id="8433"></path><path d="M379.812 474.712s-1.86 1.406-3.459 1.406-3.436-1.406-3.436-1.406l-3.431-34.573s4.734-17.026 24.82-8.028l0.475 9.885s-17.623-6.25-17.258 1.533c0.351 7.491 2.289 31.183 2.289 31.183z" fill="#3B434F" p-id="8434"></path><path d="M711.56 404.467c0.02 0.001 1.734-1.361 4.971-2.375a23.464 23.464 0 0 1 5.92-1.025 23.981 23.981 0 0 1 3.61 0.109c1.253 0.133 2.547 0.373 3.85 0.745 5.215 1.491 10.534 5.116 13.659 12.599 1.568 3.741 2.603 8.448 2.876 14.336 0.068 1.472 0.089 3.018 0.059 4.641a89.48 89.48 0 0 1-0.246 5.105c-0.27 3.562-0.759 7.448-1.486 11.681 0.016-0.004 0.679 12.794-3.92 27.499-4.323 14.378-14.704 32.039-33.87 37.086 2.204-36.517 2.272-73.721 4.577-110.401z" fill="#FFFFFF" p-id="8435"></path><path d="M709.367 405.94s33.389-10.294 32.214 23.86c0 0-4.971 49.523-7.13 54.088 0 0-13.113 28.834-34.754 30.112-21.151 1.249 0 0 0 0l-0.263 9.294s38.037-4.852 45.383-48.465l5.798-39.62s4.502-52.434-39.17-39.102c-42.546 12.988 0 0 0 0l-2.078 9.833" fill="#3B434F" p-id="8436"></path><path d="M720.388 474.745s1.869 1.405 3.474 1.405 3.451-1.405 3.451-1.405l3.446-34.549s-4.754-17.014-24.929-8.023l-0.477 9.879s17.7-6.246 17.334 1.532c-0.352 7.485-2.299 31.161-2.299 31.161z m-156.986-2.771h2.461c5.087 6.909 7.157 17.525 9.842 26.714 0.832 2.848 0.025 7.829-0.703 9.842-2.666 7.374-11.035 7.242-17.927 10.545-1.851 0.887-3.227 2.418-5.624 2.812-1.563-1.376-3.449-1.647-4.218-3.867-1.899-2.614 0.548-4.247 2.461-5.273 3.47-1.861 14.183-3.696 15.466-7.03 1.587-1.805 0.532-7.234 0-9.139-1.362-4.881-2.016-8.955-3.867-13.357-1.229-2.924-3.388-6.007-2.109-9.491 1.06-0.454 3.351-0.971 4.218-1.756z m-94.553-59.755c7.765 0 14.06 6.295 14.06 14.06 0 7.765-6.295 14.06-14.06 14.06-7.765 0-14.06-6.295-14.06-14.06 0-7.765 6.294-14.06 14.06-14.06z m164.502 0c7.765 0 14.06 6.295 14.06 14.06 0 7.765-6.295 14.06-14.06 14.06s-14.06-6.295-14.06-14.06c0-7.765 6.295-14.06 14.06-14.06z" fill="#3B434F" p-id="8437"></path><path d="M635.46 464.241c9.706 0 17.575 7.869 17.575 17.575s-7.869 17.575-17.575 17.575-17.575-7.869-17.575-17.575 7.869-17.575 17.575-17.575z m-170.126 0c9.706 0 17.575 7.869 17.575 17.575s-7.869 17.575-17.575 17.575-17.575-7.869-17.575-17.575 7.868-17.575 17.575-17.575z" fill="#EDF1F1" p-id="8438"></path><path d="M595.422 393.064s42.089-24.064 72.156 2.449l7.953 1.233s-10.187-37.068-84.36-12.965l2.065 6.91m1.648-0.002s42.818-24.594 71.047 6.47l14.544-0.415s-18.138-39.597-92.599-14.613l7.008 10.205m-89.899 0.867s-41.948-23.851-71.915 2.427l-7.927 1.222s10.153-36.74 84.079-12.85l-2.058 6.849m-1.643-0.001s-42.675-24.376-70.81 6.413l-14.495-0.411s18.078-39.246 92.29-14.483l-6.985 10.115" fill="#3B434F" p-id="8439"></path><path d="M393.459 398.159s5.424-84.684 57.684-122.322c0 0 75.458 51.33 194.156 0 0 0 52.502 23.913 60.498 122.322h2.818s15.032-112.722-23.922-157.472c0 0-9.596-34.271-60.498-59.052l-18.29 11.248s-12.289-15.038-45.022-33.744c0 0-24.209 10.787-36.58 29.526l-19.697-12.654s-27.523 12.599-43.615 35.15l-29.546 4.218-15.476 28.12s-36.942 29.762-25.329 151.848l2.819 2.812z" fill="#3B434F" p-id="8440"></path><path d="M398.38 398.862s7.118-79.165 52.763-118.104c0 0 75.458 52.033 194.156 0.703 0 0 47.581 17.586 55.577 115.995l13.363 0.703s15.032-113.425-23.922-158.175c0 0-13.814-39.192-64.716-63.973l-18.964 10.545s-12.259-14.335-44.992-33.041c0 0-25.591 9.381-37.962 28.12l-18.374-11.951s-29.632 14.005-45.724 36.556l-30.952 4.218-16.882 30.932s-36.942 31.871-25.329 153.957l11.958 3.515z" fill="#3B434F" p-id="8441"></path><path d="M552.274 190.784c1.034 0.769 0.522 1.481 0.298 2.444-0.335 1.435-0.733 2.856-0.956 4.288-0.339 2.17-0.649 4.343-0.738 6.484-0.075 1.801-0.042 3.595-0.011 5.378 0.018 1.03 0.194 2.058 0.22 3.089 0.01 0.411 0.122 0.824 0.134 1.243l0.076 0.341c0.015 0.526 0.153 1.028 0.167 1.554l0.258 1.427c0.126 0.754 0.188 1.541 0.418 2.275l0.076 0.564c0.183 0.583 0.243 1.186 0.427 1.771l0.039 0.347c0.267 0.844 0.388 1.732 0.654 2.571 0.433 1.362 0.785 2.73 1.262 4.088 0.316 0.901 0.589 1.845 0.908 2.752 0.567 1.614 1.258 3.19 1.881 4.786 0.379 0.972 0.888 1.869 1.294 2.837 1.149 2.738 2.626 5.428 4.038 8.112 0.456 0.867 0.957 1.664 1.463 2.511 0.323 0.54 0.657 1.146 0.955 1.702 0.165 0.308 0.371 0.54 0.55 0.839 0.388 0.648 0.809 1.345 1.191 1.998 0.353 0.604 0.752 1.12 1.142 1.708 0.42 0.635 0.837 1.349 1.263 1.986 0.741 1.108 1.526 2.178 2.26 3.272 0.762 1.137 1.619 2.143 2.426 3.263 1.564 2.171 3.392 4.254 5.078 6.433 0.505 0.652 1.109 1.222 1.613 1.854 0.252 0.315 0.672 0.59 0.843 0.921 0.069 0.135 0.109 0.342 0.157 0.495 0.078 0.245 0.058 0.549 0.061 0.808 0.005 0.416 0.026 0.838-0.047 1.273-0.076 0.451-0.362 0.948-0.548 1.393-0.15 0.358-0.522 0.673-0.733 0.847-0.177 0.147-0.25 0.283-0.431 0.425-0.47 0.37-1.002 0.674-1.517 0.828-0.534 0.16-1.224-0.319-1.646-0.825-0.738-0.885-1.66-1.697-2.368-2.584-0.151-0.19-0.319-0.274-0.468-0.462-0.817-1.034-1.821-2.008-2.628-3.025-0.184-0.232-0.386-0.362-0.565-0.595-0.628-0.816-1.363-1.552-2-2.385-1.596-2.087-3.318-4.104-4.761-6.206-0.338-0.491-0.7-0.88-1.03-1.373-2.338-3.493-4.684-6.926-6.557-10.485-0.493-0.937-1.038-1.788-1.499-2.728a143.14 143.14 0 0 1-3.652-8.027c-0.147-0.354-0.254-0.749-0.39-1.107a144.465 144.465 0 0 1-1.721-4.831c-0.556-1.634-0.872-3.341-1.392-4.978-0.11-0.345-0.143-0.72-0.254-1.074l-0.046-0.383c-0.121-0.384-0.134-0.792-0.251-1.168-0.282-0.9-0.369-1.872-0.524-2.797-0.146-0.873-0.346-1.765-0.37-2.655l-0.1-0.486c-0.016-0.578-0.162-1.149-0.176-1.719-0.025-0.995-0.183-1.987-0.201-2.98-0.023-1.235-0.071-2.474-0.063-3.71 0.007-1.237 0.11-2.447 0.181-3.695 0.193-3.381 0.812-6.777 1.628-10.278 0.296-1.27 0.771-2.512 1.171-3.784 0.276-0.876 0.709-1.721 1.018-2.587 0.081-0.226 0.206-0.36 0.292-0.588 0.185-0.489 0.428-1.09 0.88-1.411 0.202-0.143 0.667-0.22 0.905-0.15 0.162 0.045 0.267 0.173 0.416 0.169z m-32.992 24.234c0.749 0.542 0.69 1.335 0.708 2.004 0.018 0.693 0.218 1.383 0.237 2.082l0.243 1.448c0.011 0.391 0.109 0.762 0.173 1.143 0.066 0.393 0.094 0.789 0.215 1.174l0.218 1.303c0.12 0.383 0.133 0.792 0.251 1.168 0.365 1.163 0.504 2.396 0.875 3.557 0.393 1.231 0.681 2.503 1.107 3.723 0.559 1.598 1.107 3.206 1.715 4.795 0.311 0.812 0.681 1.571 1.013 2.381 0.254 0.619 0.495 1.293 0.783 1.898a213.417 213.417 0 0 0 3.754 7.527c1.044 1.983 2.289 3.876 3.433 5.831 0.353 0.603 0.751 1.121 1.142 1.708 0.883 1.325 1.822 2.704 2.725 4.051 0.854 1.273 1.881 2.46 2.78 3.707 0.147 0.204 0.317 0.314 0.459 0.519 0.456 0.658 1.052 1.291 1.553 1.938 0.252 0.325 0.571 0.551 0.8 0.891 0.502 0.743 0.815 2.129 0.576 2.993-0.414 1.497-1.859 2.504-2.959 2.89-0.332 0.116-0.85 0.327-1.21 0.219-0.568-0.17-0.931-0.676-1.262-1.093-0.429-0.54-0.929-0.932-1.344-1.47-0.767-0.995-1.67-1.885-2.438-2.889-1.607-2.102-3.253-4.136-4.68-6.276-3.304-4.953-6.046-9.953-8.185-15.09-0.888-2.132-1.602-4.331-2.317-6.5-0.254-0.772-0.394-1.598-0.639-2.368-0.336-1.056-0.485-2.145-0.814-3.195l-0.052-0.419c-0.053-0.234-0.133-0.461-0.173-0.697l-0.082-0.6c-0.124-0.396-0.153-0.805-0.221-1.21-0.066-0.393-0.168-0.777-0.179-1.18l-0.148-0.775c-0.03-1.054-0.283-2.088-0.304-3.149-0.005-0.251-0.085-0.516-0.091-0.766-0.025-1.016-0.125-2.034-0.12-3.05 0.006-1.157-0.005-2.333 0.067-3.49 0.029-0.456 0.108-0.885 0.129-1.342 0.022-0.501 0.111-0.981 0.177-1.499 0.039-0.307 0.04-0.679 0.132-0.989 0.094-0.315 0.416-0.825 0.715-0.956 0.204-0.089 0.596-0.178 0.818-0.117 0.167 0.044 0.271 0.174 0.42 0.17z m-25.209 5.254c0.841 0.617 0.608 1.395 0.602 2.151-0.009 1.216 0.114 2.43 0.145 3.641 0.024 0.965 0.271 1.924 0.298 2.89l0.173 0.92c0.015 0.535 0.131 1.226 0.291 1.738l0.046 0.383c0.05 0.296 0.112 0.588 0.203 0.878l0.064 0.492c0.216 0.69 0.283 1.428 0.503 2.112 0.525 1.635 0.943 3.307 1.516 4.939 1.243 3.539 2.946 6.968 4.758 10.411 0.592 1.125 1.329 2.172 1.928 3.29 0.255 0.477 0.59 0.864 0.873 1.325 0.773 1.261 1.67 2.52 2.511 3.77 1.164 1.73 2.582 3.307 3.819 5.023 0.433 0.601 0.981 1.123 1.402 1.703 0.374 0.515 0.859 0.902 1.26 1.41 0.794 1.006 1.795 1.964 2.637 2.968 0.486 0.579 1.064 1.047 1.534 1.606 0.525 0.625 1.186 1.125 1.703 1.727l0.393 0.344c0.528 0.625 1.265 1.178 1.809 1.803 0.232 0.267 0.508 0.391 0.743 0.658 0.764 0.868 1.841 1.572 2.625 2.449 0.224 0.25 0.522 0.42 0.722 0.643l0.254 0.181c0.271 0.302 0.692 0.578 0.966 0.882l0.275 0.196c0.448 0.498 1.139 0.891 1.592 1.392l0.359 0.257c0.577 0.638 1.492 1.094 2.078 1.739l0.788 0.595c0.128 0.141 0.405 0.263 0.556 0.429 0.399 0.439 1.071 0.783 1.504 1.202 0.256 0.247 0.657 0.418 0.873 0.655 0.19 0.209 0.536 0.35 0.704 0.535l1.649 1.178c1.301 0.929 2.597 1.801 3.856 2.691 0.596 0.422 1.336 0.754 1.703 1.281 0.207 0.298 0.29 0.725 0.399 1.05 0.245 0.731 0.346 1.599 0.141 2.395-0.063 0.243-0.189 0.406-0.28 0.66-0.146 0.407-0.389 1.038-0.823 1.42-0.282 0.248-0.577 0.583-0.89 0.798-0.482 0.332-1.008 0.155-1.597-0.089l-0.565-0.372c-0.902-0.387-1.745-1.216-2.651-1.607-0.174-0.075-0.357-0.264-0.501-0.326l-0.903-0.613c-0.331-0.143-0.629-0.491-1.003-0.653-0.313-0.135-0.632-0.388-0.939-0.607l-0.338-0.242c-0.302-0.131-0.658-0.407-0.939-0.607l-1.226-0.876c-0.439-0.191-0.926-0.629-1.347-0.93-0.349-0.249-0.822-0.518-1.084-0.806l-0.719-0.513c-0.5-0.357-0.994-0.71-1.428-1.084l-0.719-0.513c-0.347-0.383-0.948-0.672-1.293-1.051l-0.486-0.347c-0.251-0.278-0.685-0.521-0.933-0.794l-0.423-0.302c-0.191-0.211-0.531-0.432-0.722-0.643l-0.338-0.242c-0.66-0.733-1.627-1.286-2.271-2.005l-0.604-0.495c-0.833-0.937-1.96-1.69-2.764-2.612-0.219-0.251-0.465-0.364-0.68-0.613-0.743-0.863-1.692-1.633-2.407-2.485-0.118-0.14-0.233-0.173-0.35-0.314-0.337-0.405-0.773-0.823-1.1-1.232-0.152-0.19-0.317-0.271-0.468-0.462-1.132-1.428-2.462-2.703-3.559-4.136-1.941-2.538-3.967-5.014-5.502-7.628-0.348-0.592-0.762-1.087-1.1-1.678-0.597-1.045-1.249-2.074-1.81-3.142a139.35 139.35 0 0 1-2.5-5.037c-0.562-1.183-1.008-2.456-1.47-3.663a113.03 113.03 0 0 1-1.089-2.945c-0.342-0.975-0.588-1.99-0.908-2.975-0.325-1.002-0.458-2.065-0.775-3.071-0.12-0.382-0.108-0.865-0.227-1.246-0.295-0.94-0.366-1.961-0.527-2.926-0.69-4.122-0.762-8.343-0.459-12.63 0.07-0.989 0.276-1.926 0.438-2.938 0.074-0.461 0.225-1.046 0.735-1.387 0.163-0.109 0.68-0.194 0.869-0.144 0.155 0.04 0.277 0.175 0.42 0.171z" fill="#3B434F" p-id="8442"></path></svg>