<?xml version="1.0" standalone="no"?><!DOCTYPE svg PUBLIC "-//W3C//DTD SVG 1.1//EN" "http://www.w3.org/Graphics/SVG/1.1/DTD/svg11.dtd"><svg t="1767750621085" class="icon" viewBox="0 0 1024 1024" version="1.1" xmlns="http://www.w3.org/2000/svg" p-id="9356" xmlns:xlink="http://www.w3.org/1999/xlink" width="200" height="200"><path d="M259.836 857.858s-17.611-154.384 134.09-171.607h64.914v-29.904s45.663 19.613 91.901 2.188l1.459 27.716h75.855s132.096 13.187 124.107 171.607H259.836z" fill="#FFFFFF" p-id="9357"></path><path d="M750.9 860.571H255.096l2.355-40.223c4.597-78.537 66.476-138.473 137.287-138.473h53.891v8.023h-49.592c-68.248 0-127.886 57.692-132.317 133.288l-1.635 27.904h484.53l-0.906-27.904c-4.431-75.596-64.069-133.288-132.317-133.288h-66.38v-8.023h70.247c70.811 0 132.69 59.936 137.287 138.473l2.354 40.223h-9z" fill="#3B434F" p-id="9358"></path><path d="M466.134 652.972v44.985c0 23.344 18.94 42.267 42.304 42.267s42.304-18.924 42.304-42.267V653.9a142.342 142.342 0 0 0 7.294-2.436v46.799c0 27.606-22.369 49.984-49.962 49.984-27.593 0-49.962-22.379-49.962-49.984v-48.184a142.622 142.622 0 0 0 8.022 2.893z m-8.388 86.523a4.741 4.741 0 0 1 4.741 4.741v71.478a4.741 4.741 0 0 1-9.482 0v-71.478a4.74 4.74 0 0 1 4.741-4.741z m99.559-0.729a5.106 5.106 0 0 1 5.106 5.106v44.492a5.106 5.106 0 1 1-10.212 0v-44.492a5.106 5.106 0 0 1 5.106-5.106z" fill="#3B434F" p-id="9359"></path><path d="M457.746 815.35a2.553 2.553 0 0 1 2.553 2.553v18.234a2.553 2.553 0 1 1-5.106 0v-18.234a2.552 2.552 0 0 1 2.553-2.553z m99.924-26.987a2.553 2.553 0 0 1 2.553 2.553v18.234a2.553 2.553 0 1 1-5.106 0v-18.234a2.553 2.553 0 0 1 2.553-2.553z" fill="#3B434F" p-id="9360"></path><path d="M430.381 635.023l-46.196 10.608s-56.571 12.814-18.934 50.941 134.434 44.86 134.434 44.86-25.593-12.122-36.469-29.175l-3.647-61.267-29.188-15.967z" fill="#F5F3EF" p-id="9361"></path><path d="M501.144 745.079c-2.866 3.628-83.467 1.133-139.31-47.409-40.433-35.148 20.422-55.432 20.422-55.432l44.492-10.211 38.657 19.693 2.918 59.079c16.272 25.516 37.435 28.44 32.821 34.28z m-40.116-31.363l-4.376-61.997-23.34-13.129-44.492 10.941s-53.891 11.051-19.693 43.033c36.906 34.515 105.18 43.778 112.323 43.033 7.404-0.771-4.149 3.635-20.422-21.881z" fill="#3B434F" p-id="9362"></path><path d="M586.445 636.741l46.223 10.639s56.605 12.853 18.946 51.094c-37.66 38.242-134.514 44.995-134.514 44.995s25.608-12.159 36.49-29.262l3.649-61.451 29.206-16.015z" fill="#F5F3EF" p-id="9363"></path><path d="M515.64 746.398c2.868 3.639 83.517 1.137 139.393-47.551 40.457-35.253-20.435-55.598-20.435-55.598l-44.518-10.242-38.68 19.752-2.919 59.256c-16.282 25.592-37.458 28.525-32.841 34.383z m40.139-31.457l4.379-62.182 23.354-13.168 44.518 10.973s53.923 11.084 19.705 43.162c-36.928 34.618-105.243 43.909-112.39 43.162-7.408-0.775 4.152 3.645 20.434-21.947z" fill="#3B434F" p-id="9364"></path><path d="M508.075 195.384c90.735 0 162.352 84.792 160.023 186.671l-2.475 108.279c-2.194 95.98-72.706 171.848-157.548 171.848S352.72 586.314 350.527 490.334l-2.475-108.279c-2.329-101.88 69.288-186.671 160.023-186.671z" fill="#FFFFFF" p-id="9365"></path><path d="M675.388 378.697l-2.593 112.678c-2.299 99.879-76.184 178.829-165.085 178.829s-162.786-78.95-165.085-178.829l-2.593-112.678c-2.44-106.018 72.603-194.254 167.678-194.254s170.118 88.236 167.678 194.254zM507.346 196.113c-89.494 0-160.132 84.129-157.836 185.212l2.441 107.434c2.164 95.23 71.712 170.505 155.394 170.505s153.23-75.275 155.394-170.505l2.441-107.434c2.298-101.083-68.34-185.212-157.834-185.212z" fill="#3B434F" p-id="9366"></path><path d="M670.836 397.42l-7.294 119.617s-32.395 138.075-157.544 154.424v0.203c-0.246-0.03-0.484-0.07-0.729-0.101-0.245 0.031-0.483 0.071-0.729 0.101v-0.203c-125.15-16.349-157.545-154.424-157.545-154.424l-7.294-119.617c32.476 144.153 59.808 153.168 59.808 153.168-5.531-43.713 39.386-39.386 39.386-39.386 27.376 4.624 49.168 6.859 66.373 7.694 17.204-0.835 38.997-3.07 66.373-7.694 0 0 44.917-4.327 39.386 39.386 0.001 0 27.333-9.015 59.809-153.168z m-81.103 167.994c-2.123-25.713-17.628-23.533-17.628-23.533-27.565 8.111-49.202 12.617-66.107 14.907v-0.168c-16.786-2.271-38.272-6.74-65.643-14.784 0 0-15.397-2.162-17.505 23.34 0 0-6.183 25.551 14.587 36.469l26.257 27.716s17.944 5.687 17.505-16.046c0 0-1.826-16.209 8.752-18.964h16.046v0.48h16.159c10.653 2.778 8.814 19.12 8.814 19.12-0.442 21.913 17.628 16.179 17.628 16.179l26.443-27.945c20.918-11.009 14.692-36.771 14.692-36.771z" fill="#3B434F" p-id="9367"></path><path d="M586.48 555.84c-13.257 11.511-43.202 22.464-78.043 22.464s-64.785-10.952-78.043-22.464c0 0-1.356-3.732 0.634-5.722 2.027-2.027 5.201-1.586 5.201-1.586 13.243 11.519 37.353 21.019 72.208 21.019s58.964-9.5 72.208-21.019c0 0 3.239-1.203 4.813 0.37 3.031 3.031 1.022 6.938 1.022 6.938z m-102.112 39.969h46.68v7.294h-46.68v-7.294z" fill="#3B434F" p-id="9368"></path><path d="M339.851 395.129c-0.02 0.001-1.791-1.413-5.135-2.466a24.146 24.146 0 0 0-6.116-1.064 24.459 24.459 0 0 0-3.729 0.113 23.372 23.372 0 0 0-3.977 0.774c-5.387 1.548-10.882 5.312-14.109 13.08-1.62 3.884-2.689 8.771-2.971 14.884a74.425 74.425 0 0 0-0.061 4.819 93.79 93.79 0 0 0 0.254 5.3c0.279 3.699 0.784 7.732 1.535 12.128-0.016-0.004-0.701 13.283 4.049 28.55 4.466 14.927 15.189 33.263 34.987 38.503-2.276-37.914-2.346-76.54-4.727-114.621z" fill="#FFFFFF" p-id="9369"></path><path d="M342.108 396.657s-34.491-10.687-33.277 24.772c0 0 5.135 51.416 7.365 56.155 0 0 13.546 29.936 35.9 31.263 21.849 1.297 0 0 0 0l0.271 9.649s-39.291-5.038-46.88-50.317l-5.99-41.134s-4.651-54.437 40.462-40.596c43.949 13.484 0 0 0 0l2.149 10.208" fill="#3B434F" p-id="9370"></path><path d="M330.724 468.091s-1.93 1.459-3.588 1.459c-1.658 0-3.565-1.459-3.565-1.459l-3.559-35.869s4.911-17.665 25.751-8.329l0.493 10.256s-18.284-6.484-17.906 1.59c0.363 7.772 2.374 32.352 2.374 32.352z" fill="#3B434F" p-id="9371"></path><path d="M674.916 395.212c0.02 0.001 1.799-1.412 5.157-2.464a24.316 24.316 0 0 1 6.142-1.063 24.674 24.674 0 0 1 3.745 0.113c1.3 0.138 2.643 0.387 3.994 0.773 5.41 1.547 10.93 5.308 14.171 13.072 1.627 3.882 2.701 8.765 2.984 14.874 0.071 1.527 0.093 3.131 0.062 4.815a91.915 91.915 0 0 1-0.256 5.297c-0.281 3.696-0.787 7.727-1.542 12.119 0.017-0.004 0.704 13.274-4.067 28.531-4.485 14.917-15.255 33.241-35.141 38.477 2.289-37.889 2.36-76.488 4.751-114.544z" fill="#FFFFFF" p-id="9372"></path><path d="M672.641 396.74s34.642-10.68 33.423 24.755c0 0-5.158 51.381-7.397 56.117 0 0-13.605 29.916-36.058 31.242-21.944 1.296 0 0 0 0l-0.273 9.643s39.464-5.034 47.086-50.283l6.016-41.106s4.671-54.4-40.639-40.569c-44.142 13.475 0 0 0 0l-2.158 10.201" fill="#3B434F" p-id="9373"></path><path d="M684.076 468.126s1.939 1.458 3.604 1.458 3.581-1.458 3.581-1.458l3.575-35.845s-4.933-17.653-25.864-8.324l-0.495 10.249s18.364-6.48 17.984 1.589c-0.366 7.767-2.385 32.331-2.385 32.331z m-162.875-2.875h2.553c5.278 7.168 7.425 18.183 10.211 27.716 0.863 2.954 0.026 8.122-0.729 10.211-2.766 7.651-11.449 7.513-18.599 10.941-1.92 0.92-3.348 2.509-5.835 2.918-1.621-1.428-3.578-1.708-4.376-4.012-1.97-2.712 0.569-4.406 2.553-5.47 3.601-1.931 14.715-3.834 16.046-7.294 1.647-1.873 0.552-7.505 0-9.482-1.413-5.064-2.091-9.291-4.012-13.858-1.276-3.033-3.515-6.232-2.188-9.847 1.1-0.471 3.476-1.008 4.376-1.823z m-106.123-51.493h26.257c3.625 0 6.564 3.527 6.564 7.877s-2.939 7.877-6.564 7.877h-26.257c-3.625 0-6.564-3.527-6.564-7.877s2.938-7.877 6.564-7.877z m160.461-1.751h26.257c3.625 0 6.564 3.527 6.564 7.877s-2.939 7.877-6.564 7.877h-26.257c-3.625 0-6.564-3.527-6.564-7.877s2.939-7.877 6.564-7.877z" fill="#3B434F" p-id="9374"></path><path d="M595.962 457.228c10.07 0 18.234 8.164 18.234 18.234s-8.164 18.234-18.234 18.234c-10.071 0-18.234-8.164-18.234-18.234s8.163-18.234 18.234-18.234z m-176.508 0c10.07 0 18.234 8.164 18.234 18.234s-8.164 18.234-18.234 18.234c-10.071 0-18.234-8.164-18.234-18.234s8.163-18.234 18.234-18.234z" fill="#EDF1F1" p-id="9375"></path><path d="M666.585 387.55c-0.987 8.427-1.854 18.74-3.676 27.96-5.449 27.571-29.14 53.116-69.592 56.026-40.452 2.911-74.881-17.454-76.899-45.486-0.342-4.753-1.257-10.086-1.959-15.272-5.725-3.174-11.625-3.181-17.701-0.022-0.71 5.303-1.659 10.777-2.009 15.643-2.024 28.125-36.561 48.557-77.141 45.637s-64.346-28.549-69.812-56.212c-1.828-9.251-2.698-19.598-3.687-28.053l-5.963-0.429 0.838-11.64 1.455 0.105 36.905 2.656 31.152 2.242 31.21 2.246 48.611 3.498c3.353 0.424 5.582 1.862 7.017 4.008 6.981 3.056 13.761 3.068 20.34 0.036 1.423-2.285 3.682-3.823 7.158-4.262l48.459-3.487 31.112-2.238 31.054-2.234 36.789-2.647 1.45-0.104 0.835 11.601-5.946 0.428z m-191.323 12.577l-95.271-6.856c-12.461-1.074-16.877 12.928-17.645 23.601-1.619 22.5 23.451 42.638 55.995 44.98 32.544 2.342 60.239-13.999 61.858-36.499 0.768-10.672 4.254-17.263-4.937-25.226z m173.144 16.427c-0.766-10.637-5.168-24.593-17.59-23.523l-94.972 6.833c-9.162 7.936-5.687 14.505-4.921 25.142 1.614 22.425 29.222 38.713 61.664 36.378 32.442-2.333 57.433-22.405 55.819-44.83z" fill="#3B444F" p-id="9376"></path><path d="M348.757 442.641s20.291-88.885 37.947-113.198c17.657-24.313 32.936-30.129 40.866-30.872 7.93-0.744 70.382 17.717 156.168-3.43 0 0 33.825-1.35 48.164 32.588 0 0 30.231 54.083 35.028 108.053h5.838s12.372-94.607 7.298-150.931c-5.074-56.325-78.814-84.041-78.814-84.041l16.055-12.006s-37.483-11.587-52.543-5.145l11.676-24.012s-75.644 0.151-118.221 34.303l1.46-17.151s-150.074 23.014-118.221 262.415l7.299 3.427z" fill="#3B434F" p-id="9377"></path></svg>