<?xml version="1.0" standalone="no"?><!DOCTYPE svg PUBLIC "-//W3C//DTD SVG 1.1//EN" "http://www.w3.org/Graphics/SVG/1.1/DTD/svg11.dtd"><svg t="1767750185916" class="icon" viewBox="0 0 1024 1024" version="1.1" xmlns="http://www.w3.org/2000/svg" p-id="5459" xmlns:xlink="http://www.w3.org/1999/xlink" width="200" height="200"><path d="M254.293 867.821s-18.148-159.093 138.181-176.842h66.894v-30.817s47.056 20.212 94.704 2.255l1.503 28.562h78.169s136.126 13.59 127.893 176.842H254.293z" fill="#FFFFFF" p-id="5460"></path><path d="M762.827 872.378H251.899l2.426-41.45c4.738-80.932 68.504-142.697 141.475-142.697h55.535v8.268H400.23c-70.33 0-131.787 59.452-136.353 137.354l-1.685 28.755h499.311l-0.934-28.755c-4.566-77.902-66.023-137.354-136.353-137.354H555.81v-8.268h72.39c72.971 0 136.738 61.764 141.475 142.697l2.426 41.45h-9.274z" fill="#3B434F" p-id="5461"></path><path d="M503.948 781.432c-40.266 0-72.907-32.642-72.907-72.907a72.88 72.88 0 0 1 2.884-20.294h21.168v8.268h-15.411a65.273 65.273 0 0 0-1.125 12.026c0 36.115 29.277 65.391 65.391 65.391s65.391-29.277 65.391-65.391c0-4.111-0.395-8.127-1.125-12.026h-15.411v-8.268h21.168a72.88 72.88 0 0 1 2.884 20.294c0.001 40.265-32.641 72.907-72.907 72.907z" fill="#3B434F" p-id="5462"></path><path d="M461.106 658.447v46.357c0 24.056 19.518 43.557 43.594 43.557s43.594-19.501 43.594-43.557v-45.401c2.53-0.77 5.036-1.607 7.516-2.51v48.226c0 28.448-23.051 51.509-51.486 51.509s-51.486-23.061-51.486-51.509v-49.654a148.225 148.225 0 0 0 8.268 2.982z" fill="#3B434F" p-id="5463"></path><path d="M506.581 186.899c93.503 0 167.304 87.378 164.905 192.365l-2.551 111.583c-2.261 98.908-74.924 177.09-162.354 177.09s-160.093-78.182-162.354-177.09l-2.551-111.583c-2.399-104.987 71.403-192.365 164.905-192.365z" fill="#FFFFFF" p-id="5464"></path><path d="M678.999 375.805l-2.672 116.116c-2.369 102.926-78.508 184.284-170.121 184.284S338.454 594.847 336.085 491.92l-2.673-116.116c-2.514-109.252 74.818-200.18 172.793-200.18s175.308 90.929 172.794 200.181zM505.83 187.651c-92.224 0-165.017 86.696-162.65 190.862l2.516 110.711c2.23 98.135 73.9 175.707 160.135 175.707s157.905-77.571 160.135-175.707l2.516-110.711c2.366-104.167-70.427-190.862-162.652-190.862z" fill="#3B434F" p-id="5465"></path><path d="M488.164 608.559h36.078a3.006 3.006 0 0 1 0 6.012h-36.078a3.007 3.007 0 0 1 0-6.012z m-31.571-35.973l4.186-5.86c13.459 7.698 29.449 12.162 46.604 12.162 17.346 0 33.5-4.565 47.052-12.422l4.383 6.053c-14.742 8.534-32.309 13.491-51.17 13.491-18.811 0-36.336-4.93-51.055-13.424z" fill="#3B434F" p-id="5466"></path><path d="M333.226 392.737c-0.021 0.001-1.845-1.456-5.291-2.541a24.835 24.835 0 0 0-6.302-1.096 25.256 25.256 0 0 0-3.843 0.116 24.205 24.205 0 0 0-4.098 0.797c-5.551 1.595-11.214 5.474-14.54 13.479-1.669 4.003-2.771 9.038-3.062 15.338a76.78 76.78 0 0 0-0.063 4.966c0.032 1.737 0.118 3.556 0.262 5.462 0.288 3.811 0.808 7.968 1.582 12.498-0.017-0.004-0.722 13.688 4.173 29.421 4.602 15.382 15.652 34.278 36.055 39.678-2.347-39.071-2.42-78.874-4.873-118.118z" fill="#FFFFFF" p-id="5467"></path><path d="M335.552 394.313S300.009 383.3 301.26 419.84c0 0 5.292 52.984 7.59 57.868 0 0 13.959 30.849 36.996 32.217 22.515 1.336 0 0 0 0l0.28 9.943s-40.49-5.191-48.31-51.852l-6.172-42.389s-4.793-56.098 41.696-41.835c45.29 13.895 0 0 0 0l2.212 10.521" fill="#3B434F" p-id="5468"></path><path d="M323.821 467.926s-1.989 1.503-3.698 1.503-3.674-1.503-3.674-1.503l-3.668-36.964s5.061-18.204 26.537-8.583l0.508 10.569s-18.842-6.682-18.452 1.639c0.374 8.009 2.447 33.339 2.447 33.339z" fill="#3B434F" p-id="5469"></path><path d="M678.513 392.824c0.021 0.001 1.854-1.455 5.314-2.539a25.083 25.083 0 0 1 6.33-1.096 25.515 25.515 0 0 1 3.86 0.116c1.34 0.142 2.724 0.398 4.116 0.797 5.575 1.594 11.263 5.47 14.603 13.47 1.677 4 2.783 9.032 3.075 15.328 0.073 1.574 0.096 3.227 0.063 4.962a95.866 95.866 0 0 1-0.263 5.458c-0.289 3.809-0.811 7.963-1.589 12.489 0.017-0.004 0.726 13.678-4.191 29.401-4.622 15.372-15.721 34.255-36.213 39.651 2.357-39.044 2.431-78.821 4.895-118.037z" fill="#FFFFFF" p-id="5470"></path><path d="M676.168 394.398s35.699-11.006 34.442 25.51c0 0-5.315 52.949-7.623 57.828 0 0-14.02 30.828-37.158 32.195-22.614 1.335 0 0 0 0l-0.281 9.937s40.667-5.188 48.522-51.817l6.2-42.36s4.814-56.06-41.879-41.806c-45.488 13.886 0 0 0 0l-2.223 10.513" fill="#3B434F" p-id="5471"></path><path d="M687.951 467.961s1.998 1.502 3.714 1.502 3.69-1.502 3.69-1.502l3.684-36.938s-5.083-18.191-26.653-8.578l-0.51 10.562s18.924-6.678 18.533 1.638c-0.376 8.004-2.458 33.316-2.458 33.316z m-167.843-2.962h2.631c5.439 7.386 7.652 18.737 10.523 28.562 0.89 3.045 0.027 8.37-0.752 10.523-2.85 7.884-11.799 7.743-19.166 11.274-1.979 0.949-3.451 2.586-6.013 3.007-1.671-1.471-3.688-1.761-4.51-4.134-2.03-2.795 0.586-4.541 2.631-5.637 3.71-1.99 15.164-3.951 16.536-7.516 1.697-1.93 0.569-7.734 0-9.771-1.456-5.218-2.155-9.575-4.134-14.281-1.314-3.126-3.622-6.422-2.255-10.147 1.133-0.487 3.581-1.04 4.509-1.88z m-109.361-53.064h27.058c3.736 0 6.765 3.634 6.765 8.117 0 4.483-3.029 8.118-6.765 8.118h-27.058c-3.736 0-6.765-3.634-6.765-8.118 0.001-4.483 3.029-8.117 6.765-8.117z m165.357-1.804h27.058c3.736 0 6.765 3.634 6.765 8.117 0 4.483-3.029 8.117-6.765 8.117h-27.058c-3.736 0-6.765-3.634-6.765-8.117 0.001-4.483 3.029-8.117 6.765-8.117z" fill="#3B434F" p-id="5472"></path><path d="M597.15 456.731c10.378 0 18.791 8.413 18.791 18.79 0 10.378-8.413 18.791-18.791 18.791s-18.791-8.413-18.791-18.791c0-10.377 8.413-18.79 18.791-18.79z m-181.893 0c10.378 0 18.79 8.413 18.79 18.79 0 10.378-8.413 18.791-18.79 18.791-10.378 0-18.791-8.413-18.791-18.791 0.001-10.377 8.413-18.79 18.791-18.79z" fill="#EDF1F1" p-id="5473"></path><path d="M656.528 387.582v55.62c0 13.592-13.259 34.801-34.863 36.016-3.174-0.151-67.357 0.062-67.357 0.062-28.852 0-34.575-34.575-34.575-34.575v-37.581h-27.058v37.581s-5.722 34.575-34.575 34.575c0 0-64.184-0.213-67.357-0.062-21.605-1.215-34.863-22.424-34.863-36.016v-55.62h-24.052V372.55H471.63s21.045 3.4 21.045 18.039h27.058c0-14.639 21.045-18.039 21.045-18.039H680.58v15.032h-24.052z m-178.886 7.516c0-5.358-6.013-6.013-6.013-6.013H370.912v52.613c0 16.393 22.549 22.549 22.549 22.549h61.633c21.205 0 22.549-22.549 22.549-22.549l-0.001-46.6z m163.853-6.013H540.778s-6.013 0.655-6.013 6.013v46.601s1.343 22.549 22.549 22.549h61.633s22.549-6.155 22.549-22.549v-52.614zM620.45 479.28c0.41-0.009 0.811-0.039 1.215-0.062 0.339 0.016-0.002 0.037-1.215 0.062z m-229.708-0.062c0.404 0.023 0.805 0.053 1.215 0.062-1.213-0.025-1.555-0.046-1.215-0.062z" fill="#3B434F" p-id="5474"></path><path d="M342.686 385.792s-6.737-71.587 37.245-109.45c0 0 104.544 102.753 246.532 0 0 0 51.018 51.032 46.601 106.73 0 0 86.034-98.684 19.542-117.253 0 0-16.394 4.774-22.549-19.542-6.155-24.316-17.621-102.847-172.873-105.227s-144.311 93.201-144.311 93.201c0.493 0.3-86.232 42.472-10.187 151.541z" fill="#C1BFBD" p-id="5475"></path><path d="M673.815 391.34c-1.813-61.802-47.352-108.233-47.352-108.233-141.988 98.362-245.78 0-245.78 0-33.245 25.448-37.581 107.482-37.581 107.482-85.754-109.455 5.003-157.541 4.51-157.84 0 0-8.681-99.619 146.566-96.959 161.698 2.771 173.492 80.629 180.389 108.233 5.5 22.013 24.803 18.039 24.803 18.039 69.07 26.825-25.555 129.278-25.555 129.278z m16.536-121.011s-18.388 4.8-25.555-24.052c-6.047-24.343-12.36-97.585-167.612-99.966-155.252-2.38-139.802 91.698-139.802 91.698 0.493 0.299-78.027 37.612-20.294 130.03 0 0-1.891-60.599 42.091-98.462 0 0 101.15 106.834 248.787 0.752 0 0 46.78 44.543 50.359 99.214 0 0 68.987-86.719 12.026-99.214z" fill="#3B434F" p-id="5476"></path></svg>