<?xml version="1.0" standalone="no"?><!DOCTYPE svg PUBLIC "-//W3C//DTD SVG 1.1//EN" "http://www.w3.org/Graphics/SVG/1.1/DTD/svg11.dtd"><svg t="1767749849113" class="icon" viewBox="0 0 1024 1024" version="1.1" xmlns="http://www.w3.org/2000/svg" p-id="2525" xmlns:xlink="http://www.w3.org/1999/xlink" width="200" height="200"><path d="M608.239 573.626s-75.409-90.905 5.552 4.164 145.743 37.477 145.743 37.477V291.856c0-136.949-84.67-141.579-84.67-141.579l26.373-6.94c-104.875-43.325-140.863 32.492-149.223 55.904-1.454 4.071-2.072 6.557-2.072 6.557s-7.511 34.107 6.246 47.193" fill="#3B444F" p-id="2526"></path><path d="M501.361 229.395c96.207 0 174.198 77.991 174.198 174.198v36.089c0 96.207-77.991 174.198-174.198 174.198s-174.198-77.991-174.198-174.198v-36.089c0.001-96.207 77.992-174.198 174.198-174.198z" fill="#3B444F" p-id="2527"></path><path d="M269.561 891.897s-10.76-146.374 127.005-160.035h61.767v-28.455s43.449 18.662 87.446 2.082l1.388 26.373h72.177s123.598 4.854 117.982 161.423l-467.765-1.388z" fill="#FFFFFF" p-id="2528"></path><path d="M736.234 897.731H264.466l2.24-38.273c4.374-74.729 63.253-131.76 130.632-131.76h46.331c-3.006 2.486-5.208 5.065-6.792 7.634h-35.448c-64.939 0-121.686 54.895-125.902 126.826l-1.556 26.551h461.041l-0.862-26.551c-4.216-71.931-60.963-126.826-125.902-126.826h-35.479c-1.357-2.551-3.286-5.129-5.979-7.634h45.137c67.379 0 126.258 57.031 130.632 131.76l2.24 38.273h-8.565z m-183.173-162.4h-2.424v-7.634h2.694c-0.162 1.984-0.266 4.485-0.27 7.634z m-97.614-7.634h2.886v7.634h-2.494c-0.038-3.242-0.186-5.729-0.392-7.634z" fill="#3B434F" p-id="2529"></path><path d="M526.346 833.881a4.858 4.858 0 1 1 0 9.716 4.858 4.858 0 0 1 0-9.716z m0 31.925a4.858 4.858 0 1 1 0 9.716 4.858 4.858 0 0 1 0-9.716z" fill="#3B434F" p-id="2530"></path><path d="M582.561 768.644l-35.395 52.745c-9.629-29.844-37.477-18.738-37.477-18.738v88.142c0 2.298-2.175 4.162-4.858 4.162s-4.858-1.863-4.858-4.162v-88.144c-0.225-0.089-27.852-10.981-37.431 18.74l-35.356-52.745s-13.677-34.771 27.73-49.969v-15.962h7.83v50.235c1.005 8.647 6.959 33.287 42.085 41.375 35.164-8.088 41.124-32.727 42.131-41.375v-50.235h7.838v15.962c41.452 15.198 27.761 49.969 27.761 49.969z m-120.429 4.669c-1.887-2.137-4.606-7.445-4.606-7.445s-2.61-8.686-2.61-12.492v-17.603c-0.59-7.939-2.08-8.075-2.08-8.075-30.895 15.217-17.332 38.865-17.332 38.865l25.651 40.253c10.017-16.973 20.798-13.88 20.798-13.88-9.518-4.853-15.761-12.382-19.821-19.623z m94.75-45.616s-1.491 0.136-2.082 8.075v17.603c0 3.806-2.613 12.492-2.613 12.492s-2.721 5.308-4.611 7.445c-4.065 7.24-10.314 14.77-19.843 19.621 0 0 10.793-3.092 20.82 13.88l25.679-40.253c0.001 0.002 13.579-23.646-17.35-38.863z" fill="#3B434F" p-id="2531"></path><path d="M505.18 264.79c86.336 0 154.482 80.681 152.266 177.621l-2.355 103.03c-2.087 91.327-69.182 163.517-149.911 163.517s-147.823-72.19-149.911-163.517l-2.355-103.03c-2.215-96.94 65.93-177.621 152.266-177.621z" fill="#FFFFFF" p-id="2532"></path><path d="M664.383 439.217l-2.468 107.216c-2.187 95.038-72.491 170.16-157.082 170.16s-154.895-75.122-157.082-170.16l-2.468-107.216c-2.322-100.879 69.083-184.837 159.55-184.837s161.872 83.958 159.55 184.837zM504.487 265.484c-85.156 0-152.37 80.051-150.184 176.234l2.323 102.225c2.059 90.614 68.236 162.24 147.861 162.24s145.802-71.626 147.861-162.24l2.323-102.225c2.186-96.183-65.028-176.234-150.184-176.234z" fill="#3B434F" p-id="2533"></path><path d="M579.785 607.773c-12.615 10.953-41.107 21.375-74.259 21.375s-61.645-10.421-74.26-21.375c0 0-1.291-3.551 0.603-5.445 1.929-1.929 4.949-1.509 4.949-1.509 12.601 10.961 35.543 20 68.707 20 33.165 0 56.106-9.04 68.707-20 0 0 3.082-1.145 4.58 0.352 2.885 2.884 0.973 6.602 0.973 6.602z m-97.162 38.031h44.417v6.94h-44.417v-6.94z" fill="#3B434F" p-id="2534"></path><path d="M345.111 454.852c-0.019 0.001-1.704-1.344-4.886-2.346-1.59-0.5-3.566-0.911-5.819-1.012a23.737 23.737 0 0 0-3.548 0.108 22.298 22.298 0 0 0-3.784 0.736c-5.126 1.473-10.354 5.054-13.425 12.446-1.542 3.696-2.558 8.345-2.827 14.162a70.859 70.859 0 0 0-0.058 4.585c0.03 1.604 0.109 3.284 0.242 5.043 0.266 3.519 0.746 7.357 1.461 11.54-0.016-0.004-0.667 12.639 3.853 27.166 4.249 14.203 14.452 31.651 33.291 36.637-2.167-36.077-2.234-72.83-4.5-109.065z" fill="#FFFFFF" p-id="2535"></path><path d="M347.26 456.306s-32.819-10.169-31.664 23.571c0 0 4.886 48.924 7.008 53.432 0 0 12.889 28.485 34.16 29.747 20.79 1.234 0 0 0 0l0.258 9.181s-37.387-4.794-44.608-47.878l-5.699-39.14s-4.425-51.798 38.501-38.628c41.819 12.83 0 0 0 0l2.044 9.715" fill="#3B434F" p-id="2536"></path><path d="M336.427 524.278s-1.837 1.388-3.414 1.388c-1.578 0-3.392-1.388-3.392-1.388l-3.387-34.13s4.673-16.808 24.503-7.926l0.469 9.759s-17.397-6.17-17.038 1.513c0.346 7.395 2.259 30.784 2.259 30.784z" fill="#3B434F" p-id="2537"></path><path d="M665.561 454.931c0.019 0.001 1.712-1.344 4.907-2.345a23.203 23.203 0 0 1 5.845-1.012 23.948 23.948 0 0 1 3.564 0.108c1.237 0.132 2.515 0.368 3.801 0.736 5.148 1.472 10.4 5.051 13.484 12.438 1.548 3.694 2.57 8.34 2.84 14.153 0.068 1.453 0.088 2.98 0.059 4.582a88.958 88.958 0 0 1-0.243 5.04c-0.267 3.517-0.749 7.352-1.467 11.532 0.016-0.004 0.67 12.63-3.87 27.148-4.268 14.194-14.516 31.629-33.437 36.612 2.174-36.053 2.242-72.781 4.517-108.992z" fill="#FFFFFF" p-id="2538"></path><path d="M661.77 456.385s32.963-10.162 31.803 23.555c0 0-4.908 48.89-7.039 53.396 0 0-12.945 28.466-34.31 29.727-20.881 1.233 0 0 0 0l-0.259 9.175s37.55-4.79 44.803-47.846l5.724-39.114s4.445-51.763-38.669-38.602c-42.002 12.822 0 0 0 0l-2.053 9.709" fill="#3B434F" p-id="2539"></path><path d="M672.649 524.31s1.845 1.387 3.429 1.387c1.585 0 3.407-1.387 3.407-1.387l3.402-34.107s-4.694-16.797-24.61-7.92l-0.471 9.753s17.474-6.166 17.112 1.512c-0.347 7.389-2.269 30.762-2.269 30.762z m-154.978-2.735h2.429c5.022 6.82 7.065 17.301 9.716 26.372 0.822 2.811 0.025 7.728-0.694 9.716-2.631 7.28-10.894 7.149-17.697 10.41-1.827 0.876-3.186 2.388-5.552 2.776-1.543-1.359-3.405-1.626-4.164-3.817-1.874-2.581 0.541-4.193 2.429-5.205 3.426-1.837 14.002-3.648 15.268-6.94 1.567-1.782 0.525-7.141 0-9.022-1.345-4.818-1.99-8.841-3.817-13.186-1.214-2.886-3.345-5.93-2.082-9.369 1.046-0.449 3.307-0.96 4.164-1.735z m-96.121-53.439h9.716c5.366 0 9.716 4.35 9.716 9.716s-4.35 9.716-9.716 9.716h-9.716c-5.366 0-9.716-4.35-9.716-9.716s4.35-9.716 9.716-9.716z m158.235 0h9.716c5.366 0 9.716 4.35 9.716 9.716s-4.35 9.716-9.716 9.716h-9.716c-5.366 0-9.716-4.35-9.716-9.716s4.35-9.716 9.716-9.716z" fill="#3B434F" p-id="2540"></path><path d="M588.807 513.941c9.582 0 17.35 7.768 17.35 17.35s-7.768 17.35-17.35 17.35-17.35-7.768-17.35-17.35 7.768-17.35 17.35-17.35z m-167.951 0c9.582 0 17.35 7.768 17.35 17.35s-7.768 17.35-17.35 17.35-17.35-7.768-17.35-17.35 7.767-17.35 17.35-17.35z" fill="#EDF1F1" p-id="2541"></path><path d="M542.243 437.442l4.02 5.106 2.494 3.165s44.163-24.386 74.816 3.749l3.268 1.602s-7.551-40.789-73.655-16.93a202.848 202.848 0 0 0-10.943 3.308z m-76.45 0.029l-4.02 5.096-2.494 3.158s-44.163-24.335-74.816 3.742l-3.268 1.599s7.551-40.704 73.655-16.895c3.487 0.943 7.126 2.032 10.943 3.3z m39.038-90.469V193.324c0.463-0.004 0.924-0.018 1.388-0.018 97.357 0 176.28 78.923 176.28 176.28v56.654a156.114 156.114 0 0 0 0 5.807s-163.715-44.276-177.668-85.045z m-177.667 85.045c0.037-1.895 0.035-3.833 0-5.807v-56.654c0-97.357 78.923-176.28 176.28-176.28 0.464 0 0.925 0.014 1.388 0.018v153.678c-13.953 40.769-177.668 85.045-177.668 85.045z" fill="#3B434F" p-id="2542"></path></svg>