<?xml version="1.0" standalone="no"?><!DOCTYPE svg PUBLIC "-//W3C//DTD SVG 1.1//EN" "http://www.w3.org/Graphics/SVG/1.1/DTD/svg11.dtd"><svg t="1767749836818" class="icon" viewBox="0 0 1024 1024" version="1.1" xmlns="http://www.w3.org/2000/svg" p-id="2343" xmlns:xlink="http://www.w3.org/1999/xlink" width="200" height="200"><path d="M586.157 225.89c-14.31-12.879-6.497-46.448-6.497-46.448s0.643-2.447 2.155-6.454c8.696-23.042 46.129-97.663 155.218-55.022l-27.432 6.831s88.072 4.557 88.072 139.345V582.45s-67.385 56.684-151.599-36.885c-84.214-93.569-60.888-233.566-60.888-233.566s15.28-73.229 0.971-86.109z" fill="#3B444F" p-id="2344"></path><path d="M529.127 202.666c100.072 0 181.196 76.76 181.196 171.449v35.519c0 94.689-81.124 171.449-181.196 171.449S347.93 504.324 347.93 409.635v-35.519c0-94.689 81.125-171.45 181.197-171.45z" fill="#3B444F" p-id="2345"></path><path d="M293.089 854.716s-11.192-144.065 132.107-157.51h64.249V669.2s45.195 18.368 90.959 2.049l1.444 25.956h75.077s128.563 4.778 122.723 158.877l-486.559-1.366z" fill="#FFFFFF" p-id="2346"></path><path d="M779.211 860.458H288.488l2.33-37.67c4.55-73.55 65.795-129.681 135.88-129.681h53.339v7.514h-49.084c-67.548 0-126.575 54.029-130.961 124.825l-1.619 26.132h479.565l-0.897-26.132c-4.385-70.796-63.412-124.825-130.961-124.825h-65.7v-7.514h69.527c70.086 0 131.33 56.131 135.88 129.681l2.33 37.67h-8.906z" fill="#3B434F" p-id="2347"></path><path d="M532.262 777.807c-38.673 0-70.024-29.664-70.024-66.257 0-6.403 0.979-12.586 2.77-18.443h20.331v7.514h-14.801a56.235 56.235 0 0 0-1.081 10.929c0 32.82 28.119 59.427 62.805 59.427s62.805-26.606 62.805-59.427c0-3.736-0.38-7.386-1.081-10.929h-14.801v-7.514h20.331a62.934 62.934 0 0 1 2.77 18.443c0 36.592-31.35 66.257-70.024 66.257z" fill="#3B434F" p-id="2348"></path><path d="M489.422 666.039v42.129c0 21.862 18.746 39.584 41.87 39.584s41.87-17.722 41.87-39.584v-41.26c2.43-0.7 4.837-1.46 7.219-2.281v43.827c0 25.853-22.139 46.811-49.45 46.811s-49.45-20.958-49.45-46.811V663.33c2.616 0.978 5.265 1.878 7.941 2.709z" fill="#3B434F" p-id="2349"></path><path d="M532.748 251.847c91.415 0 160.956 75.858 157.235 162.66l-5.05 117.796c-14.306 79.975-72.576 137.713-151.547 145.776-77.033-7.66-136.447-65.822-152.823-145.776l-5.05-117.796c-3.721-86.802 65.82-162.66 157.235-162.66z" fill="#FFFFFF" p-id="2350"></path><path d="M700.081 409.511l-5.374 123.082c-15.225 83.563-77.243 143.893-161.291 152.318-81.986-8.004-145.22-68.776-162.649-152.318l-5.374-123.082c-3.96-90.697 70.052-169.959 167.344-169.959s171.304 79.262 167.344 169.959zM532.748 249.114c-91.415 0-160.956 75.858-157.235 162.66l5.05 117.796c16.376 79.954 75.79 138.116 152.823 145.776 78.971-8.063 137.242-65.802 151.547-145.776l5.05-117.796c3.721-86.801-65.82-162.66-157.235-162.66z" fill="#3B434F" p-id="2351"></path><path d="M610.701 575.074c-13.121 10.78-42.759 21.037-77.243 21.037s-64.122-10.257-77.243-21.037c0 0-1.342-3.495 0.627-5.359 2.006-1.898 5.148-1.485 5.148-1.485 13.108 10.788 36.971 19.685 71.468 19.685s58.36-8.897 71.468-19.685c0 0 3.206-1.127 4.764 0.347 3 2.838 1.011 6.497 1.011 6.497z m-101.066 37.431h46.201v6.831h-46.201v-6.831z" fill="#3B434F" p-id="2352"></path><path d="M366.599 424.566c-0.02 0.001-1.772-1.323-5.082-2.309a25.057 25.057 0 0 0-6.053-0.996 25.683 25.683 0 0 0-3.691 0.106c-1.281 0.13-2.604 0.362-3.936 0.725-5.332 1.45-10.77 4.975-13.965 12.25-1.603 3.638-2.661 8.214-2.941 13.939a66.566 66.566 0 0 0-0.061 4.513c0.031 1.578 0.114 3.232 0.252 4.964 0.276 3.464 0.776 7.241 1.52 11.358-0.016-0.004-0.694 12.439 4.008 26.737 4.42 13.979 15.033 31.152 34.629 36.059-2.253-35.509-2.323-71.683-4.68-107.346z" fill="#FFFFFF" p-id="2353"></path><path d="M368.834 425.997s-34.137-10.009-32.936 23.199c0 0 5.082 48.152 7.289 52.59 0 0 13.407 28.036 35.533 29.278 21.625 1.214 0 0 0 0l0.269 9.036s-38.889-4.718-46.4-47.123l-5.928-38.523s-4.603-50.981 40.047-38.019c43.499 12.628 0 0 0 0l2.126 9.562" fill="#3B434F" p-id="2354"></path><path d="M357.566 492.896s-1.91 1.366-3.552 1.366c-1.641 0-3.528-1.366-3.528-1.366l-3.523-33.592s4.861-16.543 25.487-7.801l0.488 9.605s-18.096-6.073-17.722 1.489c0.36 7.28 2.35 30.299 2.35 30.299z" fill="#3B434F" p-id="2355"></path><path d="M699.923 424.644c0.02 0.001 1.78-1.322 5.104-2.308a25.312 25.312 0 0 1 6.079-0.996 25.917 25.917 0 0 1 3.708 0.106c1.287 0.129 2.616 0.362 3.953 0.724 5.355 1.449 10.818 4.971 14.026 12.242 1.61 3.635 2.673 8.208 2.954 13.93 0.07 1.43 0.092 2.933 0.061 4.51a82.137 82.137 0 0 1-0.253 4.96c-0.278 3.461-0.779 7.236-1.526 11.35 0.016-0.004 0.697 12.431-4.025 26.719-4.439 13.97-15.099 31.13-34.781 36.034 2.263-35.483 2.334-71.631 4.7-107.271z" fill="#FFFFFF" p-id="2356"></path><path d="M695.98 426.075s34.287-10.002 33.08 23.183c0 0-5.105 48.119-7.321 52.554 0 0-13.465 28.017-35.688 29.258-21.719 1.214 0 0 0 0l-0.27 9.03s39.059-4.715 46.603-47.091l5.954-38.497s4.623-50.947-40.223-37.993c-43.689 12.619 0 0 0 0l-2.135 9.556" fill="#3B434F" p-id="2357"></path><path d="M707.297 492.928s1.919 1.365 3.567 1.365 3.544-1.365 3.544-1.365l3.538-33.569s-4.882-16.532-25.599-7.795l-0.49 9.599s18.176-6.069 17.8 1.488c-0.361 7.273-2.36 30.277-2.36 30.277z m-161.206-2.692h2.527c5.224 6.713 7.349 17.028 10.107 25.956 0.855 2.767 0.026 7.607-0.722 9.563-2.737 7.165-11.332 7.036-18.408 10.246-1.9 0.862-3.314 2.35-5.775 2.732-1.604-1.337-3.542-1.6-4.331-3.757-1.95-2.54 0.563-4.127 2.527-5.123 3.564-1.808 14.565-3.591 15.882-6.831 1.63-1.754 0.546-7.028 0-8.88-1.399-4.742-2.07-8.701-3.97-12.978-1.262-2.841-3.479-5.836-2.166-9.221 1.086-0.441 3.438-0.944 4.329-1.707z m-99.983-52.596h10.107c5.582 0 10.107 4.281 10.107 9.563 0 5.281-4.525 9.563-10.107 9.563h-10.107c-5.582 0-10.107-4.281-10.107-9.563 0.001-5.281 4.526-9.563 10.107-9.563z m164.593 0h10.107c5.582 0 10.107 4.281 10.107 9.563 0 5.281-4.525 9.563-10.107 9.563h-10.107c-5.582 0-10.107-4.281-10.107-9.563 0.001-5.281 4.525-9.563 10.107-9.563z" fill="#3B434F" p-id="2358"></path><path d="M620.086 482.723c9.967 0 18.047 7.645 18.047 17.077 0 9.431-8.08 17.077-18.047 17.077s-18.047-7.645-18.047-17.077c-0.001-9.432 8.079-17.077 18.047-17.077z m-174.699 0c9.967 0 18.047 7.645 18.047 17.077 0 9.431-8.08 17.077-18.047 17.077s-18.047-7.645-18.047-17.077c-0.001-9.432 8.079-17.077 18.047-17.077z" fill="#EDF1F1" p-id="2359"></path><path d="M689.986 417.468c-0.977 7.892-1.834 17.55-3.638 26.185-5.393 25.821-28.841 49.743-68.879 52.469-40.038 2.726-74.114-16.346-76.111-42.598-0.339-4.451-1.244-9.446-1.939-14.302-5.666-2.972-11.506-2.979-17.52-0.02-0.702 4.966-1.642 10.092-1.989 14.65-2.003 26.339-36.186 45.474-76.351 42.739-40.164-2.735-63.686-26.737-69.097-52.643-1.809-8.663-2.67-18.353-3.65-26.272l-5.902-0.402 0.829-10.901 1.44 0.098 36.527 2.487 30.832 2.099 30.89 2.103 48.113 3.276c3.318 0.397 5.525 1.744 6.946 3.754 6.91 2.862 13.62 2.873 20.132 0.034 1.408-2.139 3.644-3.58 7.085-3.992l47.962-3.265 30.793-2.096 30.736-2.092 36.412-2.479 1.436-0.098 0.826 10.865-5.883 0.401z m-189.363 11.779l-94.295-6.421c-12.333-1.006-16.705 12.108-17.465 22.102-1.603 21.071 23.21 39.931 55.421 42.124 32.211 2.193 59.622-13.11 61.225-34.182 0.76-9.993 4.21-16.166-4.886-23.623z m171.369 15.384c-0.758-9.962-5.116-23.032-17.41-22.029l-93.998 6.399c-9.068 7.432-5.629 13.584-4.871 23.546 1.598 21.002 28.922 36.255 61.032 34.069s56.845-20.984 55.247-41.985z" fill="#3B444F" p-id="2360"></path><path d="M378.25 318.787l52.699-63.525 47.645-21.175 64.249-9.563 73.634 4.098 98.9 96.995-26.71 91.531s-6.122-40.368-38.982-72.405c-30.652-29.884-50.533-37.227-50.533-37.227s-11.592 44.261-88.793 42.692c-138.475-2.814-132.324 90.235-137.161 98.361-0.532 0.893-0.722-38.935-0.722-38.935l5.774-90.847z" fill="#3B434F" p-id="2361"></path></svg>