<?xml version="1.0" standalone="no"?><!DOCTYPE svg PUBLIC "-//W3C//DTD SVG 1.1//EN" "http://www.w3.org/Graphics/SVG/1.1/DTD/svg11.dtd"><svg t="1767749817016" class="icon" viewBox="0 0 1024 1024" version="1.1" xmlns="http://www.w3.org/2000/svg" p-id="2161" xmlns:xlink="http://www.w3.org/1999/xlink" width="200" height="200"><path d="M764.937 695.707c-31.879 148.625-195.056 90.418-250.761 65.724v-0.158c-55.705 24.712-218.882 82.965-250.761-65.775 0 0 57.178 0.655 40.015-190.507 0 0-61.945-378.693 210.746-347.04v0.621c272.691-31.628 210.746 346.774 210.746 346.774-17.163 191.016 40.015 190.361 40.015 190.361z" fill="#3B434F" p-id="2162"></path><path d="M291.217 876.476s-10.34-149.925 122.046-163.917h59.356v-29.145s41.753 19.115 84.032 2.133l1.334 27.012h69.359s118.772 4.972 113.376 165.339l-449.503-1.422z" fill="#FFFFFF" p-id="2163"></path><path d="M741.879 882.452H288.53l2.153-39.202c4.204-76.542 60.784-134.956 125.532-134.956h49.276v7.819h-45.346c-62.404 0-116.935 56.227-120.987 129.902l-1.495 27.195h443.041l-0.829-27.195c-4.051-73.676-58.583-129.902-120.987-129.902h-60.696v-7.819h64.232c64.748 0 121.328 58.414 125.532 134.956l2.153 39.202h-8.23z" fill="#3B434F" p-id="2164"></path><path d="M512.175 796.439c-35.728 0-64.691-30.871-64.691-68.952 0-6.663 0.904-13.098 2.559-19.193h18.783v7.819h-13.674a65.75 65.75 0 0 0-0.998 11.374c0 34.155 25.977 61.844 58.022 61.844s58.022-27.688 58.022-61.844a65.76 65.76 0 0 0-0.998-11.374h-13.674v-7.819h18.783a73.156 73.156 0 0 1 2.559 19.193c-0.002 38.081-28.965 68.952-64.693 68.952z" fill="#3B434F" p-id="2165"></path><path d="M474.161 680.126v43.842c0 22.751 17.318 41.194 38.681 41.194 21.363 0 38.681-18.443 38.681-41.194V681.03a124 124 0 0 0 6.669-2.374v45.61c0 26.904-20.453 48.715-45.684 48.715-25.231 0-45.684-21.81-45.684-48.715v-46.96a125.731 125.731 0 0 0 7.337 2.82z" fill="#3B434F" p-id="2166"></path><path d="M514.511 234.158c82.965 0 148.45 82.638 146.321 181.93l-2.263 105.53c-2.006 93.543-66.48 167.483-144.058 167.483S372.459 615.16 370.453 521.618l-2.263-105.53c-2.129-99.291 63.356-181.93 146.321-181.93z" fill="#FFFFFF" p-id="2167"></path><path d="M667.498 412.817l-2.371 109.817c-2.102 97.343-69.661 174.287-150.949 174.287s-148.847-76.945-150.949-174.287l-2.371-109.817c-2.231-103.325 66.386-189.321 153.32-189.321s155.551 85.995 153.32 189.321zM513.845 234.869c-81.831 0-146.421 81.993-144.321 180.508l2.232 104.705c1.979 92.812 65.572 166.175 142.088 166.175s140.11-73.363 142.088-166.175l2.232-104.705c2.101-98.515-62.488-180.508-144.319-180.508z" fill="#3B434F" p-id="2168"></path><path d="M586.203 585.461c-12.122 11.219-39.502 21.893-71.36 21.893-31.858 0-59.238-10.674-71.36-21.893 0 0-1.24-3.637 0.579-5.577 1.853-1.975 4.756-1.546 4.756-1.546 12.109 11.227 34.155 20.485 66.025 20.485 31.87 0 53.915-9.259 66.025-20.485 0 0 2.962-1.173 4.401 0.361 2.771 2.954 0.934 6.762 0.934 6.762z m-93.369 38.953h42.683v7.108h-42.683v-7.108z" fill="#3B434F" p-id="2169"></path><path d="M360.692 428.831c-0.018 0.001-1.637-1.377-4.695-2.403a20.83 20.83 0 0 0-5.592-1.037 21.398 21.398 0 0 0-3.409 0.11 20.229 20.229 0 0 0-3.636 0.754c-4.926 1.509-9.95 5.177-12.901 12.748-1.481 3.786-2.459 8.548-2.717 14.506a77.52 77.52 0 0 0-0.056 4.696c0.028 1.643 0.105 3.363 0.233 5.166 0.255 3.605 0.717 7.536 1.404 11.82-0.015-0.004-0.641 12.945 3.702 27.825 4.083 14.548 13.888 32.419 31.992 37.525-2.084-36.952-2.149-74.596-4.325-111.71z" fill="#FFFFFF" p-id="2170"></path><path d="M362.756 430.32s-31.537-10.416-30.428 24.142c0 0 4.695 50.11 6.734 54.729 0 0 12.386 29.176 32.826 30.469 19.978 1.264 0 0 0 0l0.248 9.404s-35.927-4.91-42.866-49.04l-5.477-40.09s-4.253-53.055 36.997-39.565c40.186 13.142 0 0 0 0l1.966 9.951" fill="#3B434F" p-id="2171"></path><path d="M352.346 499.94s-1.765 1.422-3.281 1.422-3.26-1.422-3.26-1.422l-3.255-34.958s4.491-17.216 23.546-8.118l0.45 9.996s-16.718-6.32-16.373 1.55c0.335 7.574 2.173 31.53 2.173 31.53z" fill="#3B434F" p-id="2172"></path><path d="M667.067 428.912c0.018 0.001 1.645-1.376 4.715-2.401a21.007 21.007 0 0 1 5.616-1.036 21.6 21.6 0 0 1 3.425 0.11c1.189 0.135 2.417 0.377 3.652 0.754 4.947 1.508 9.994 5.173 12.958 12.74 1.488 3.783 2.469 8.542 2.729 14.496 0.065 1.489 0.085 3.052 0.056 4.693a96.025 96.025 0 0 1-0.234 5.162c-0.257 3.602-0.72 7.531-1.41 11.812 0.015-0.004 0.644 12.936-3.719 27.806-4.101 14.538-13.949 32.397-32.132 37.5 2.092-36.928 2.157-74.547 4.344-111.636z" fill="#FFFFFF" p-id="2173"></path><path d="M664.986 430.401s31.676-10.409 30.561 24.126c0 0-4.716 50.076-6.764 54.691 0 0-12.44 29.156-32.97 30.448-20.065 1.263 0 0 0 0l-0.249 9.398s36.084-4.906 43.054-49.006l5.501-40.062s4.271-53.019-37.159-39.538c-40.362 13.133 0 0 0 0l-1.974 9.943" fill="#3B434F" p-id="2174"></path><path d="M675.442 499.974s1.773 1.421 3.296 1.421 3.274-1.421 3.274-1.421l3.269-34.935s-4.51-17.204-23.649-8.112l-0.452 9.989s16.792-6.315 16.444 1.549c-0.336 7.569-2.182 31.509-2.182 31.509z m-148.928-2.802h2.334c4.826 6.986 6.789 17.721 9.337 27.012 0.789 2.879 0.024 7.916-0.667 9.952-2.529 7.456-10.469 7.323-17.006 10.663-1.756 0.897-3.062 2.445-5.335 2.843-1.482-1.392-3.272-1.665-4.002-3.91-1.801-2.644 0.52-4.294 2.334-5.331 3.292-1.882 13.455-3.737 14.672-7.108 1.506-1.826 0.505-7.314 0-9.241-1.292-4.935-1.912-9.055-3.668-13.506-1.166-2.956-3.214-6.074-2.001-9.596 1.005-0.461 3.178-0.984 4.002-1.778z m-97.037-50.186h24.009c3.315 0 6.002 3.437 6.002 7.677s-2.687 7.677-6.002 7.677h-24.009c-3.315 0-6.002-3.437-6.002-7.677 0-4.239 2.687-7.677 6.002-7.677z m146.722-1.706h24.009c3.315 0 6.002 3.437 6.002 7.677s-2.687 7.677-6.002 7.677h-24.009c-3.315 0-6.002-3.437-6.002-7.677 0-4.239 2.687-7.677 6.002-7.677z" fill="#3B434F" p-id="2175"></path><path d="M594.873 489.353c9.208 0 16.673 7.956 16.673 17.771 0 9.815-7.465 17.771-16.673 17.771-9.208 0-16.673-7.956-16.673-17.771 0-9.815 7.464-17.771 16.673-17.771z m-161.394 0c9.208 0 16.673 7.956 16.673 17.771 0 9.815-7.465 17.771-16.673 17.771-9.208 0-16.673-7.956-16.673-17.771 0-9.815 7.464-17.771 16.673-17.771z" fill="#EDF1F1" p-id="2176"></path><path d="M647.559 423.955v52.603c0 12.855-11.765 32.914-30.934 34.062-2.816-0.143-59.767 0.058-59.767 0.058-25.601 0-30.678-32.699-30.678-32.699v-35.542h-24.009v35.542s-5.077 32.699-30.678 32.699c0 0-56.95-0.202-59.767-0.058-19.17-1.149-30.934-21.207-30.934-34.062v-52.603h-21.341v-14.217h124.047s18.674 3.215 18.674 17.06h24.009c0-13.845 18.674-17.06 18.674-17.06h124.047v14.217h-21.343z m-158.726 7.108c0-5.068-5.335-5.687-5.335-5.687H394.13v49.759c0 15.504 20.008 21.325 20.008 21.325h54.687c18.816 0 20.008-21.325 20.008-21.325v-44.072z m145.388-5.686h-89.367s-5.335 0.619-5.335 5.687v44.073s1.192 21.325 20.008 21.325h54.687s20.008-5.821 20.008-21.325v-49.76z m-18.674 85.301c0.364-0.008 0.719-0.037 1.078-0.058 0.301 0.015-0.002 0.035-1.078 0.058z m-203.821-0.058c0.359 0.022 0.714 0.05 1.078 0.058-1.076-0.023-1.379-0.043-1.078-0.058z m102.45-198.919V154.295c0.445-0.004 0.888-0.018 1.334-0.018 93.555 0 169.397 80.837 169.397 180.555v58.028a168.466 168.466 0 0 0 0 5.948c0 0.001-157.323-45.349-170.731-87.107z m-170.731 87.108c0.036-1.941 0.034-3.926 0-5.948v-58.028c0-99.718 75.842-180.555 169.397-180.555 0.446 0 0.889 0.014 1.334 0.018v157.406c-13.408 41.757-170.731 87.107-170.731 87.107z" fill="#3B434F" p-id="2177"></path></svg>