<?xml version="1.0" standalone="no"?><!DOCTYPE svg PUBLIC "-//W3C//DTD SVG 1.1//EN" "http://www.w3.org/Graphics/SVG/1.1/DTD/svg11.dtd"><svg t="1767749792999" class="icon" viewBox="0 0 1024 1024" version="1.1" xmlns="http://www.w3.org/2000/svg" p-id="1978" xmlns:xlink="http://www.w3.org/1999/xlink" width="200" height="200"><path d="M773.453 669.098c-30.685 134.218-187.752 81.653-241.37 59.353v-0.143c-53.619 22.317-210.685 74.922-241.37-59.399 0 0 55.036 0.592 38.517-172.04 0 0-59.626-341.985 202.854-313.4v0.56c262.479-28.562 202.854 313.16 202.854 313.16-16.521 172.5 38.515 171.909 38.515 171.909z" fill="#3B434F" p-id="1979"></path><path d="M314.465 832.344s-9.953-135.392 117.475-148.028h57.133v-26.32s40.189 17.262 80.885 1.926l1.284 24.394h66.762s114.324 4.49 109.13 149.312l-432.669-1.284z" fill="#FFFFFF" p-id="1980"></path><path d="M746.123 837.741H309.751l2.072-35.402c4.046-69.122 58.507-121.874 120.831-121.874h42.855c-2.78 2.299-4.818 4.685-6.283 7.061h-32.789c-60.067 0-112.556 50.776-116.456 117.31l-1.439 24.559h426.45l-0.798-24.559c-3.9-66.534-56.389-117.31-116.456-117.31h-32.817c-1.255-2.359-3.039-4.744-5.531-7.061h41.75c62.323 0 116.784 52.752 120.831 121.874l2.072 35.402h-7.92zM576.694 687.526h-2.242v-7.061h2.492c-0.15 1.835-0.246 4.148-0.25 7.061z m-90.29-7.061h2.669v7.061h-2.307c-0.035-2.999-0.172-5.3-0.362-7.061z" fill="#3B434F" p-id="1981"></path><path d="M551.983 778.682a4.494 4.494 0 1 1 0 8.988 4.494 4.494 0 0 1 0-8.988z m0 29.529a4.494 4.494 0 1 1 0 8.988 4.494 4.494 0 0 1 0-8.988z" fill="#3B434F" p-id="1982"></path><path d="M603.98 718.339l-32.739 48.788c-8.906-27.604-34.665-17.332-34.665-17.332v81.529c0 2.126-2.012 3.849-4.494 3.849-2.482 0-4.494-1.723-4.494-3.849v-81.531c-0.208-0.083-25.762-10.157-34.622 17.334l-32.703-48.788s-12.65-32.162 25.65-46.22v-14.765h7.242v46.466c0.93 7.999 6.437 30.789 38.927 38.27 32.526-7.481 38.039-30.272 38.97-38.27v-46.466h7.25v14.765c38.343 14.058 25.678 46.22 25.678 46.22z m-111.393 4.319c-1.746-1.977-4.26-6.887-4.26-6.887s-2.414-8.034-2.414-11.555v-16.283c-0.546-7.344-1.924-7.469-1.924-7.469-28.577 14.075-16.031 35.949-16.031 35.949l23.726 37.233c9.265-15.699 19.237-12.839 19.237-12.839-8.804-4.487-14.578-11.452-18.334-18.149z m87.642-42.193s-1.379 0.126-1.926 7.469v16.283c0 3.521-2.417 11.555-2.417 11.555s-2.517 4.91-4.265 6.887c-3.76 6.697-9.54 13.662-18.354 18.149 0 0 9.983-2.86 19.258 12.839l23.752-37.233s12.56-21.874-16.048-35.949z" fill="#3B434F" p-id="1983"></path><path d="M532.406 252.289c79.858 0 142.891 74.628 140.841 164.295l-2.178 95.3c-1.931 84.475-63.991 151.248-138.663 151.248s-136.732-66.773-138.663-151.248l-2.178-95.3c-2.05-89.667 60.982-164.295 140.841-164.295z" fill="#FFFFFF" p-id="1984"></path><path d="M679.664 413.629l-2.282 99.172c-2.023 87.907-67.052 157.393-145.296 157.393S388.813 600.708 386.79 512.801l-2.283-99.172c-2.148-93.31 63.9-170.969 147.579-170.969s149.725 77.659 147.578 170.969z m-147.9-160.698c-78.767 0-140.937 74.045-138.916 163.011l2.149 94.556c1.904 83.815 63.116 150.067 136.767 150.067s134.863-66.252 136.767-150.067l2.148-94.556c2.023-88.966-60.148-163.011-138.915-163.011z" fill="#3B434F" p-id="1985"></path><path d="M601.413 569.538c-11.668 10.131-38.023 19.771-68.688 19.771s-57.02-9.64-68.688-19.771c0 0-1.194-3.285 0.558-5.036 1.784-1.784 4.578-1.396 4.578-1.396 11.656 10.138 32.876 18.5 63.552 18.5 30.676 0 51.896-8.361 63.552-18.5 0 0 2.851-1.059 4.236 0.326 2.668 2.667 0.9 6.106 0.9 6.106z m-89.872 35.178h41.084v6.419h-41.084v-6.419z m-50.072-169.473c7.091 0 12.839 5.748 12.839 12.839s-5.748 12.839-12.839 12.839-12.839-5.748-12.839-12.839 5.749-12.839 12.839-12.839z m142.511 0c7.091 0 12.839 5.748 12.839 12.839s-5.748 12.839-12.839 12.839-12.839-5.748-12.839-12.839 5.749-12.839 12.839-12.839z" fill="#3B434F" p-id="1986"></path><path d="M460.827 482.747c12.409 0 22.468 0.712 22.468 14.765 0 14.495-10.059 14.765-22.468 14.765s-22.468-2.64-22.468-14.765c0-14.164 10.06-14.765 22.468-14.765z m148.931 0c12.409 0 22.468 0.712 22.468 14.765 0 14.495-10.059 14.765-22.468 14.765s-22.468-2.64-22.468-14.765c0-14.164 10.059-14.765 22.468-14.765z" fill="#F5F3EF" p-id="1987"></path><path d="M566.688 411.988l3.718 4.723 2.307 2.927s40.849-22.556 69.202 3.468l3.023 1.482s-6.985-37.729-68.128-15.66a187.021 187.021 0 0 0-10.122 3.06z m-70.714 0.026l-3.718 4.713-2.307 2.921s-40.849-22.509-69.202 3.461l-3.023 1.479s6.985-37.65 68.128-15.628c3.226 0.874 6.591 1.881 10.122 3.054z m173.485-55.088h26.962v64.194h-26.962v-64.194z" fill="#3B434F" p-id="1988"></path><path d="M373.771 415.197s28.357-54.6 82.623-45.915c0 0 2.146 12.437 13.815 25.806 0 0 12.775-30.922 52.169-39.633 31.295-6.92 61.003-31.867 61.003-31.867s4.621 49.577 65.599 63.382c0 0 53.428 6.606 49.55-22.916s-33.527-158.019-175.506-138.567C381.045 244.939 347.7 296.498 372.509 413.904" fill="#3B444F" p-id="1989"></path><path d="M382.842 428.091c-0.018 0.001-1.576-1.244-4.519-2.17a21.209 21.209 0 0 0-5.382-0.936 21.869 21.869 0 0 0-3.282 0.1c-1.139 0.122-2.316 0.34-3.5 0.681-4.741 1.362-9.578 4.675-12.418 11.512-1.426 3.419-2.366 7.719-2.615 13.1a66.054 66.054 0 0 0-0.054 4.241c0.027 1.483 0.101 3.037 0.224 4.665 0.246 3.255 0.69 6.805 1.351 10.674-0.014-0.004-0.617 11.69 3.564 25.128 3.93 13.138 13.368 29.276 30.793 33.888-2.004-33.371-2.066-67.367-4.162-100.883z" fill="#F7FBFB" p-id="1990"></path><path d="M386.334 429.436s-30.356-9.406-29.288 21.802c0 0 4.52 45.253 6.482 49.423 0 0 11.922 26.348 31.597 27.515 19.23 1.141 0 0 0 0l0.239 8.492s-34.582-4.434-41.261-44.286l-5.272-36.204s-4.093-47.912 35.612-35.73c38.681 11.868 0 0 0 0l1.891 8.988" fill="#3B434F" p-id="1991"></path><path d="M376.314 492.308s-1.699 1.284-3.158 1.284-3.138-1.284-3.138-1.284l-3.133-31.57s4.322-15.547 22.664-7.331l0.434 9.027s-16.092-5.707-15.759 1.4c0.32 6.84 2.09 28.474 2.09 28.474z" fill="#3B434F" p-id="1992"></path><path d="M680.753 428.165c0.018 0.001 1.583-1.243 4.539-2.169a21.423 21.423 0 0 1 5.406-0.936 22.06 22.06 0 0 1 3.297 0.1 20.73 20.73 0 0 1 3.515 0.681c4.762 1.362 9.62 4.672 12.472 11.505 1.432 3.417 2.377 7.714 2.627 13.091 0.062 1.344 0.082 2.756 0.054 4.238a80.747 80.747 0 0 1-0.225 4.662c-0.247 3.253-0.693 6.801-1.357 10.667 0.015-0.004 0.62 11.682-3.579 25.111-3.947 13.129-13.427 29.256-30.928 33.865 2.012-33.349 2.074-67.322 4.179-100.815z" fill="#F7FBFB" p-id="1993"></path><path d="M677.246 429.509s30.489-9.4 29.416 21.787c0 0-4.539 45.222-6.511 49.39 0 0-11.974 26.33-31.735 27.497-19.314 1.14 0 0 0 0l-0.24 8.487s34.733-4.431 41.441-44.256l5.295-36.179s4.111-47.879-35.768-35.706c-38.85 11.86 0 0 0 0l-1.898 8.98" fill="#3B434F" p-id="1994"></path><path d="M687.31 492.338s1.706 1.283 3.172 1.283c1.466 0 3.151-1.283 3.151-1.283l3.146-31.548s-4.341-15.537-22.764-7.326l-0.435 9.021s16.163-5.703 15.828 1.399c-0.321 6.835-2.098 28.454-2.098 28.454z m-143.351-2.53h2.247c4.645 6.309 6.535 16.003 8.987 24.394 0.76 2.6 0.023 7.149-0.642 8.987-2.434 6.734-10.077 6.613-16.369 9.629-1.69 0.81-2.947 2.208-5.136 2.568-1.427-1.257-3.149-1.504-3.852-3.531-1.734-2.387 0.501-3.878 2.247-4.815 3.169-1.699 12.951-3.375 14.123-6.419 1.449-1.649 0.486-6.605 0-8.345-1.244-4.457-1.841-8.177-3.531-12.197-1.123-2.67-3.094-5.485-1.926-8.666 0.968-0.416 3.059-0.888 3.852-1.605z" fill="#3B434F" p-id="1995"></path></svg>